<svg xmlns="http://www.w3.org/2000/svg" width="840" height="210" viewBox="0 0 840 210"><defs>
    <linearGradient id="skybg" x1="0" y1="0" x2="0" y2="1">
      <stop offset="0" stop-color="#161f33"/>
      <stop offset="1" stop-color="#0d1117"/>
    </linearGradient>
    <linearGradient id="scrim" x1="0" y1="0" x2="1" y2="0">
      <stop offset="0" stop-color="rgba(13,17,23,0.88)"/>
      <stop offset="0.5" stop-color="rgba(13,17,23,0.5)"/>
      <stop offset="1" stop-color="rgba(13,17,23,0)"/>
    </linearGradient>
    <clipPath id="card"><rect width="840" height="210" rx="16"/></clipPath>
    <clipPath id="langclip"><rect x="40" y="150" width="340" height="5" rx="2.5"/></clipPath>
  </defs><g clip-path="url(#card)"><rect width="840" height="210" fill="url(#skybg)"/><circle cx="665.8" cy="55.1" r="1.30" fill="#fff" opacity="0.63"/><circle cx="635.4" cy="40.4" r="1.30" fill="#fff" opacity="0.59"/><circle cx="357.2" cy="181.1" r="1.30" fill="#fff" opacity="0.57"/><circle cx="169.3" cy="113.0" r="1.30" fill="#fff" opacity="0.55"/><circle cx="193.5" cy="197.8" r="0.95" fill="#fff" opacity="0.54"/><circle cx="391.2" cy="193.7" r="0.95" fill="#fff" opacity="0.52"/><circle cx="836.2" cy="61.3" r="0.95" fill="#fff" opacity="0.45"/><circle cx="635.4" cy="40.4" r="0.95" fill="#fff" opacity="0.45"/><circle cx="641.5" cy="197.3" r="0.95" fill="#fff" opacity="0.44"/><circle cx="790.9" cy="172.3" r="0.70" fill="#fff" opacity="0.43"/><circle cx="491.1" cy="115.1" r="0.70" fill="#fff" opacity="0.43"/><circle cx="582.9" cy="152.3" r="0.70" fill="#fff" opacity="0.43"/><circle cx="505.4" cy="198.4" r="0.70" fill="#fff" opacity="0.43"/><circle cx="44.7" cy="190.6" r="0.70" fill="#fff" opacity="0.43"/><circle cx="456.5" cy="139.3" r="0.70" fill="#fff" opacity="0.42"/><circle cx="25.2" cy="127.9" r="0.70" fill="#fff" opacity="0.42"/><circle cx="85.8" cy="86.5" r="0.70" fill="#fff" opacity="0.42"/><circle cx="830.1" cy="2.3" r="0.70" fill="#fff" opacity="0.4"/><circle cx="394.7" cy="89.4" r="0.70" fill="#fff" opacity="0.4"/><circle cx="793.5" cy="161.0" r="0.70" fill="#fff" opacity="0.4"/><circle cx="727.0" cy="31.6" r="0.70" fill="#fff" opacity="0.39"/><circle cx="794.6" cy="119.2" r="0.70" fill="#fff" opacity="0.39"/><circle cx="499.0" cy="190.9" r="0.70" fill="#fff" opacity="0.39"/><circle cx="91.6" cy="187.0" r="0.70" fill="#fff" opacity="0.39"/><circle cx="775.2" cy="36.2" r="0.70" fill="#fff" opacity="0.38"/><circle cx="696.4" cy="57.7" r="0.70" fill="#fff" opacity="0.38"/><circle cx="496.7" cy="119.7" r="0.70" fill="#fff" opacity="0.38"/><circle cx="373.8" cy="126.4" r="0.70" fill="#fff" opacity="0.38"/><circle cx="673.5" cy="32.9" r="0.70" fill="#fff" opacity="0.36"/><circle cx="566.9" cy="146.5" r="0.70" fill="#fff" opacity="0.36"/><circle cx="399.3" cy="142.9" r="0.70" fill="#fff" opacity="0.36"/><circle cx="300.5" cy="173.2" r="0.70" fill="#fff" opacity="0.36"/><circle cx="45.7" cy="169.1" r="0.70" fill="#fff" opacity="0.36"/><circle cx="714.3" cy="137.2" r="0.70" fill="#fff" opacity="0.35"/><circle cx="801.9" cy="202.2" r="0.70" fill="#fff" opacity="0.35"/><circle cx="622.8" cy="200.5" r="0.70" fill="#fff" opacity="0.35"/><circle cx="272.9" cy="192.9" r="0.70" fill="#fff" opacity="0.35"/><circle cx="108.4" cy="33.6" r="0.70" fill="#fff" opacity="0.34"/><circle cx="537.3" cy="122.3" r="0.70" fill="#fff" opacity="0.34"/><circle cx="708.1" cy="117.6" r="1.80" fill="#f0b27a" opacity="0.85"/><circle cx="705.7" cy="199.0" r="1.80" fill="#f0b27a" opacity="0.85"/><rect width="840" height="210" fill="url(#scrim)"/><text x="40" y="86" font-family="-apple-system, BlinkMacSystemFont, 'Segoe UI', 'Helvetica Neue', Arial, 'Noto Sans', sans-serif" font-size="34" font-weight="300" fill="#f0f6fc">58</text><text x="40" y="108" font-family="-apple-system, BlinkMacSystemFont, 'Segoe UI', 'Helvetica Neue', Arial, 'Noto Sans', sans-serif" font-size="10" font-weight="500" letter-spacing="2.5" fill="#7d8590">REPOS</text><text x="240" y="86" font-family="-apple-system, BlinkMacSystemFont, 'Segoe UI', 'Helvetica Neue', Arial, 'Noto Sans', sans-serif" font-size="34" font-weight="300" fill="#f0f6fc">872</text><text x="240" y="108" font-family="-apple-system, BlinkMacSystemFont, 'Segoe UI', 'Helvetica Neue', Arial, 'Noto Sans', sans-serif" font-size="10" font-weight="500" letter-spacing="2.5" fill="#7d8590">CONTRIBUTIONS</text><text x="460" y="86" font-family="-apple-system, BlinkMacSystemFont, 'Segoe UI', 'Helvetica Neue', Arial, 'Noto Sans', sans-serif" font-size="34" font-weight="300" fill="#f0f6fc">2017-03-04</text><text x="460" y="108" font-family="-apple-system, BlinkMacSystemFont, 'Segoe UI', 'Helvetica Neue', Arial, 'Noto Sans', sans-serif" font-size="10" font-weight="500" letter-spacing="2.5" fill="#7d8590">SINCE</text><text x="40" y="140" font-family="-apple-system, BlinkMacSystemFont, 'Segoe UI', 'Helvetica Neue', Arial, 'Noto Sans', sans-serif" font-size="9" font-weight="500" letter-spacing="2.5" fill="#6e7781">LANGUAGES</text><rect x="40" y="150" width="340" height="5" rx="2.5" fill="#30363d"/><g clip-path="url(#langclip)"><rect x="40.0" y="150" width="113.3" height="5" fill="#3178c6"/><rect x="153.3" y="150" width="64.8" height="5" fill="#3572A5"/><rect x="218.1" y="150" width="48.6" height="5" fill="#f1e05a"/><rect x="266.7" y="150" width="48.6" height="5" fill="#dea584"/><rect x="315.2" y="150" width="32.4" height="5" fill="#000080"/><rect x="347.6" y="150" width="32.4" height="5" fill="#89e051"/></g><circle cx="44.0" cy="182.5" r="3" fill="#3178c6"/><text x="52.0" y="186" font-family="-apple-system, BlinkMacSystemFont, 'Segoe UI', 'Helvetica Neue', Arial, 'Noto Sans', sans-serif" font-size="9" fill="#c9d1d9">TypeScript<tspan fill="#6e7781"> 7</tspan></text><circle cx="133.2" cy="182.5" r="3" fill="#3572A5"/><text x="141.2" y="186" font-family="-apple-system, BlinkMacSystemFont, 'Segoe UI', 'Helvetica Neue', Arial, 'Noto Sans', sans-serif" font-size="9" fill="#c9d1d9">Python<tspan fill="#6e7781"> 4</tspan></text><circle cx="202.0" cy="182.5" r="3" fill="#f1e05a"/><text x="210.0" y="186" font-family="-apple-system, BlinkMacSystemFont, 'Segoe UI', 'Helvetica Neue', Arial, 'Noto Sans', sans-serif" font-size="9" fill="#c9d1d9">JavaScript<tspan fill="#6e7781"> 3</tspan></text><circle cx="291.2" cy="182.5" r="3" fill="#dea584"/><text x="299.2" y="186" font-family="-apple-system, BlinkMacSystemFont, 'Segoe UI', 'Helvetica Neue', Arial, 'Noto Sans', sans-serif" font-size="9" fill="#c9d1d9">Rust<tspan fill="#6e7781"> 3</tspan></text><circle cx="349.8" cy="182.5" r="3" fill="#000080"/><text x="357.8" y="186" font-family="-apple-system, BlinkMacSystemFont, 'Segoe UI', 'Helvetica Neue', Arial, 'Noto Sans', sans-serif" font-size="9" fill="#c9d1d9">Lua<tspan fill="#6e7781"> 2</tspan></text><circle cx="403.3" cy="182.5" r="3" fill="#89e051"/><text x="411.3" y="186" font-family="-apple-system, BlinkMacSystemFont, 'Segoe UI', 'Helvetica Neue', Arial, 'Noto Sans', sans-serif" font-size="9" fill="#c9d1d9">Shell<tspan fill="#6e7781"> 2</tspan></text><text x="816" y="192" text-anchor="end" font-family="-apple-system, BlinkMacSystemFont, 'Segoe UI', 'Helvetica Neue', Arial, 'Noto Sans', sans-serif" font-size="10" font-style="italic" fill="rgba(255,255,255,0.42)">Explore me as you please — no warranty whatsoever.</text></g><rect width="840" height="210" rx="16" fill="none" stroke="rgba(255,255,255,0.08)"/></svg>