<svg xmlns="http://www.w3.org/2000/svg" width="840" height="210" viewBox="0 0 840 210"><defs>
    <linearGradient id="skybg" x1="0" y1="0" x2="0" y2="1">
      <stop offset="0" stop-color="#161f33"/>
      <stop offset="1" stop-color="#0d1117"/>
    </linearGradient>
    <linearGradient id="scrim" x1="0" y1="0" x2="1" y2="0">
      <stop offset="0" stop-color="rgba(13,17,23,0.88)"/>
      <stop offset="0.5" stop-color="rgba(13,17,23,0.5)"/>
      <stop offset="1" stop-color="rgba(13,17,23,0)"/>
    </linearGradient>
    <clipPath id="card"><rect width="840" height="210" rx="16"/></clipPath>
    <clipPath id="langclip"><rect x="40" y="150" width="340" height="5" rx="2.5"/></clipPath>
  </defs><g clip-path="url(#card)"><rect width="840" height="210" fill="url(#skybg)"/><circle cx="490.1" cy="162.7" r="1.70" fill="#fff" opacity="0.75"/><circle cx="710.7" cy="170.5" r="1.70" fill="#fff" opacity="0.66"/><circle cx="490.1" cy="162.7" r="1.70" fill="#fff" opacity="0.65"/><circle cx="601.0" cy="204.0" r="1.30" fill="#fff" opacity="0.59"/><circle cx="480.6" cy="62.9" r="1.30" fill="#fff" opacity="0.57"/><circle cx="477.0" cy="200.9" r="1.30" fill="#fff" opacity="0.55"/><circle cx="175.3" cy="114.4" r="1.30" fill="#fff" opacity="0.55"/><circle cx="555.6" cy="46.7" r="0.95" fill="#fff" opacity="0.54"/><circle cx="75.8" cy="164.9" r="0.95" fill="#fff" opacity="0.54"/><circle cx="586.4" cy="165.1" r="0.95" fill="#fff" opacity="0.47"/><circle cx="621.3" cy="99.9" r="0.95" fill="#fff" opacity="0.46"/><circle cx="447.0" cy="49.3" r="0.95" fill="#fff" opacity="0.45"/><circle cx="682.7" cy="101.7" r="0.95" fill="#fff" opacity="0.45"/><circle cx="557.8" cy="96.4" r="0.95" fill="#fff" opacity="0.45"/><circle cx="498.0" cy="78.8" r="0.95" fill="#fff" opacity="0.44"/><circle cx="510.9" cy="153.2" r="0.95" fill="#fff" opacity="0.44"/><circle cx="53.0" cy="162.3" r="0.95" fill="#fff" opacity="0.44"/><circle cx="13.2" cy="62.9" r="0.70" fill="#fff" opacity="0.43"/><circle cx="765.0" cy="205.0" r="0.70" fill="#fff" opacity="0.42"/><circle cx="526.9" cy="161.4" r="0.70" fill="#fff" opacity="0.42"/><circle cx="100.3" cy="25.1" r="0.70" fill="#fff" opacity="0.42"/><circle cx="187.2" cy="52.8" r="0.70" fill="#fff" opacity="0.42"/><circle cx="574.1" cy="43.7" r="0.70" fill="#fff" opacity="0.41"/><circle cx="333.6" cy="24.6" r="0.70" fill="#fff" opacity="0.4"/><circle cx="759.4" cy="135.7" r="0.70" fill="#fff" opacity="0.4"/><circle cx="719.3" cy="163.1" r="0.70" fill="#fff" opacity="0.4"/><circle cx="17.1" cy="3.3" r="0.70" fill="#fff" opacity="0.4"/><circle cx="696.9" cy="157.2" r="0.70" fill="#fff" opacity="0.39"/><circle cx="42.3" cy="92.3" r="0.70" fill="#fff" opacity="0.39"/><circle cx="678.6" cy="31.9" r="0.70" fill="#fff" opacity="0.38"/><circle cx="807.3" cy="98.8" r="0.70" fill="#fff" opacity="0.38"/><circle cx="682.3" cy="103.8" r="0.70" fill="#fff" opacity="0.38"/><circle cx="726.3" cy="153.0" r="0.70" fill="#fff" opacity="0.38"/><circle cx="800.6" cy="100.4" r="0.70" fill="#fff" opacity="0.37"/><circle cx="683.8" cy="98.8" r="0.70" fill="#fff" opacity="0.37"/><circle cx="772.9" cy="209.2" r="0.70" fill="#fff" opacity="0.37"/><circle cx="529.7" cy="157.8" r="0.70" fill="#fff" opacity="0.37"/><circle cx="417.1" cy="180.4" r="0.70" fill="#fff" opacity="0.37"/><circle cx="423.0" cy="41.5" r="0.70" fill="#fff" opacity="0.36"/><circle cx="521.9" cy="48.4" r="0.70" fill="#fff" opacity="0.36"/><rect width="840" height="210" fill="url(#scrim)"/><text x="40" y="86" font-family="-apple-system, BlinkMacSystemFont, 'Segoe UI', 'Helvetica Neue', Arial, 'Noto Sans', sans-serif" font-size="34" font-weight="300" fill="#f0f6fc">56</text><text x="40" y="108" font-family="-apple-system, BlinkMacSystemFont, 'Segoe UI', 'Helvetica Neue', Arial, 'Noto Sans', sans-serif" font-size="10" font-weight="500" letter-spacing="2.5" fill="#7d8590">REPOS</text><text x="240" y="86" font-family="-apple-system, BlinkMacSystemFont, 'Segoe UI', 'Helvetica Neue', Arial, 'Noto Sans', sans-serif" font-size="34" font-weight="300" fill="#f0f6fc">761</text><text x="240" y="108" font-family="-apple-system, BlinkMacSystemFont, 'Segoe UI', 'Helvetica Neue', Arial, 'Noto Sans', sans-serif" font-size="10" font-weight="500" letter-spacing="2.5" fill="#7d8590">CONTRIBUTIONS</text><text x="460" y="86" font-family="-apple-system, BlinkMacSystemFont, 'Segoe UI', 'Helvetica Neue', Arial, 'Noto Sans', sans-serif" font-size="34" font-weight="300" fill="#f0f6fc">2017-03-04</text><text x="460" y="108" font-family="-apple-system, BlinkMacSystemFont, 'Segoe UI', 'Helvetica Neue', Arial, 'Noto Sans', sans-serif" font-size="10" font-weight="500" letter-spacing="2.5" fill="#7d8590">SINCE</text><text x="40" y="140" font-family="-apple-system, BlinkMacSystemFont, 'Segoe UI', 'Helvetica Neue', Arial, 'Noto Sans', sans-serif" font-size="9" font-weight="500" letter-spacing="2.5" fill="#6e7781">LANGUAGES</text><rect x="40" y="150" width="340" height="5" rx="2.5" fill="#30363d"/><g clip-path="url(#langclip)"><rect x="40.0" y="150" width="119.0" height="5" fill="#3178c6"/><rect x="159.0" y="150" width="68.0" height="5" fill="#3572A5"/><rect x="227.0" y="150" width="51.0" height="5" fill="#f1e05a"/><rect x="278.0" y="150" width="34.0" height="5" fill="#dea584"/><rect x="312.0" y="150" width="34.0" height="5" fill="#000080"/><rect x="346.0" y="150" width="34.0" height="5" fill="#89e051"/></g><circle cx="44.0" cy="182.5" r="3" fill="#3178c6"/><text x="52.0" y="186" font-family="-apple-system, BlinkMacSystemFont, 'Segoe UI', 'Helvetica Neue', Arial, 'Noto Sans', sans-serif" font-size="9" fill="#c9d1d9">TypeScript<tspan fill="#6e7781"> 7</tspan></text><circle cx="133.2" cy="182.5" r="3" fill="#3572A5"/><text x="141.2" y="186" font-family="-apple-system, BlinkMacSystemFont, 'Segoe UI', 'Helvetica Neue', Arial, 'Noto Sans', sans-serif" font-size="9" fill="#c9d1d9">Python<tspan fill="#6e7781"> 4</tspan></text><circle cx="202.0" cy="182.5" r="3" fill="#f1e05a"/><text x="210.0" y="186" font-family="-apple-system, BlinkMacSystemFont, 'Segoe UI', 'Helvetica Neue', Arial, 'Noto Sans', sans-serif" font-size="9" fill="#c9d1d9">JavaScript<tspan fill="#6e7781"> 3</tspan></text><circle cx="291.2" cy="182.5" r="3" fill="#dea584"/><text x="299.2" y="186" font-family="-apple-system, BlinkMacSystemFont, 'Segoe UI', 'Helvetica Neue', Arial, 'Noto Sans', sans-serif" font-size="9" fill="#c9d1d9">Rust<tspan fill="#6e7781"> 2</tspan></text><circle cx="349.8" cy="182.5" r="3" fill="#000080"/><text x="357.8" y="186" font-family="-apple-system, BlinkMacSystemFont, 'Segoe UI', 'Helvetica Neue', Arial, 'Noto Sans', sans-serif" font-size="9" fill="#c9d1d9">Lua<tspan fill="#6e7781"> 2</tspan></text><circle cx="403.3" cy="182.5" r="3" fill="#89e051"/><text x="411.3" y="186" font-family="-apple-system, BlinkMacSystemFont, 'Segoe UI', 'Helvetica Neue', Arial, 'Noto Sans', sans-serif" font-size="9" fill="#c9d1d9">Shell<tspan fill="#6e7781"> 2</tspan></text><text x="816" y="192" text-anchor="end" font-family="-apple-system, BlinkMacSystemFont, 'Segoe UI', 'Helvetica Neue', Arial, 'Noto Sans', sans-serif" font-size="10" font-style="italic" fill="rgba(255,255,255,0.42)">Explore me as you please — no warranty whatsoever.</text></g><rect width="840" height="210" rx="16" fill="none" stroke="rgba(255,255,255,0.08)"/></svg>