<svg xmlns="http://www.w3.org/2000/svg" width="840" height="210" viewBox="0 0 840 210"><defs>
    <linearGradient id="skybg" x1="0" y1="0" x2="0" y2="1">
      <stop offset="0" stop-color="#161f33"/>
      <stop offset="1" stop-color="#0d1117"/>
    </linearGradient>
    <linearGradient id="scrim" x1="0" y1="0" x2="1" y2="0">
      <stop offset="0" stop-color="rgba(13,17,23,0.88)"/>
      <stop offset="0.5" stop-color="rgba(13,17,23,0.5)"/>
      <stop offset="1" stop-color="rgba(13,17,23,0)"/>
    </linearGradient>
    <clipPath id="card"><rect width="840" height="210" rx="16"/></clipPath>
    <clipPath id="langclip"><rect x="40" y="150" width="340" height="5" rx="2.5"/></clipPath>
  </defs><g clip-path="url(#card)"><rect width="840" height="210" fill="url(#skybg)"/><circle cx="509.5" cy="101.9" r="1.70" fill="#fff" opacity="0.75"/><circle cx="764.2" cy="200.2" r="1.70" fill="#fff" opacity="0.7"/><circle cx="750.2" cy="88.9" r="1.70" fill="#fff" opacity="0.66"/><circle cx="509.5" cy="101.9" r="1.70" fill="#fff" opacity="0.65"/><circle cx="791.0" cy="166.3" r="1.30" fill="#fff" opacity="0.59"/><circle cx="636.3" cy="129.8" r="1.30" fill="#fff" opacity="0.59"/><circle cx="833.1" cy="194.7" r="1.30" fill="#fff" opacity="0.58"/><circle cx="834.8" cy="201.6" r="1.30" fill="#fff" opacity="0.58"/><circle cx="462.6" cy="5.9" r="1.30" fill="#fff" opacity="0.57"/><circle cx="506.8" cy="141.6" r="1.30" fill="#fff" opacity="0.55"/><circle cx="174.1" cy="113.5" r="1.30" fill="#fff" opacity="0.55"/><circle cx="99.5" cy="182.0" r="0.95" fill="#fff" opacity="0.54"/><circle cx="830.3" cy="187.8" r="0.95" fill="#fff" opacity="0.52"/><circle cx="561.3" cy="152.6" r="0.95" fill="#fff" opacity="0.49"/><circle cx="613.2" cy="92.3" r="0.95" fill="#fff" opacity="0.47"/><circle cx="637.8" cy="24.2" r="0.95" fill="#fff" opacity="0.46"/><circle cx="710.6" cy="21.5" r="0.95" fill="#fff" opacity="0.45"/><circle cx="563.4" cy="27.6" r="0.95" fill="#fff" opacity="0.45"/><circle cx="647.9" cy="203.1" r="0.95" fill="#fff" opacity="0.45"/><circle cx="489.1" cy="18.6" r="0.95" fill="#fff" opacity="0.44"/><circle cx="528.8" cy="89.6" r="0.95" fill="#fff" opacity="0.44"/><circle cx="683.2" cy="154.2" r="0.95" fill="#fff" opacity="0.44"/><circle cx="76.9" cy="183.9" r="0.95" fill="#fff" opacity="0.44"/><circle cx="1.2" cy="96.1" r="0.70" fill="#fff" opacity="0.43"/><circle cx="810.8" cy="122.5" r="0.70" fill="#fff" opacity="0.42"/><circle cx="548.3" cy="95.5" r="0.70" fill="#fff" opacity="0.42"/><circle cx="2.1" cy="160.4" r="0.70" fill="#fff" opacity="0.42"/><circle cx="60.7" cy="43.9" r="0.70" fill="#fff" opacity="0.42"/><circle cx="156.0" cy="52.6" r="0.70" fill="#fff" opacity="0.42"/><circle cx="652.8" cy="194.1" r="0.70" fill="#fff" opacity="0.41"/><circle cx="803.5" cy="52.9" r="0.70" fill="#fff" opacity="0.4"/><circle cx="759.3" cy="81.2" r="0.70" fill="#fff" opacity="0.4"/><circle cx="760.6" cy="171.5" r="0.70" fill="#fff" opacity="0.4"/><circle cx="733.7" cy="76.1" r="0.70" fill="#fff" opacity="0.39"/><circle cx="40.0" cy="118.9" r="0.70" fill="#fff" opacity="0.39"/><circle cx="90.4" cy="2.1" r="0.70" fill="#fff" opacity="0.39"/><circle cx="710.6" cy="23.5" r="0.70" fill="#fff" opacity="0.38"/><circle cx="766.3" cy="70.9" r="0.70" fill="#fff" opacity="0.38"/><circle cx="711.6" cy="18.4" r="0.70" fill="#fff" opacity="0.37"/><circle cx="819.3" cy="126.8" r="0.70" fill="#fff" opacity="0.37"/><rect width="840" height="210" fill="url(#scrim)"/><text x="40" y="86" font-family="-apple-system, BlinkMacSystemFont, 'Segoe UI', 'Helvetica Neue', Arial, 'Noto Sans', sans-serif" font-size="34" font-weight="300" fill="#f0f6fc">58</text><text x="40" y="108" font-family="-apple-system, BlinkMacSystemFont, 'Segoe UI', 'Helvetica Neue', Arial, 'Noto Sans', sans-serif" font-size="10" font-weight="500" letter-spacing="2.5" fill="#7d8590">REPOS</text><text x="240" y="86" font-family="-apple-system, BlinkMacSystemFont, 'Segoe UI', 'Helvetica Neue', Arial, 'Noto Sans', sans-serif" font-size="34" font-weight="300" fill="#f0f6fc">860</text><text x="240" y="108" font-family="-apple-system, BlinkMacSystemFont, 'Segoe UI', 'Helvetica Neue', Arial, 'Noto Sans', sans-serif" font-size="10" font-weight="500" letter-spacing="2.5" fill="#7d8590">CONTRIBUTIONS</text><text x="460" y="86" font-family="-apple-system, BlinkMacSystemFont, 'Segoe UI', 'Helvetica Neue', Arial, 'Noto Sans', sans-serif" font-size="34" font-weight="300" fill="#f0f6fc">2017-03-04</text><text x="460" y="108" font-family="-apple-system, BlinkMacSystemFont, 'Segoe UI', 'Helvetica Neue', Arial, 'Noto Sans', sans-serif" font-size="10" font-weight="500" letter-spacing="2.5" fill="#7d8590">SINCE</text><text x="40" y="140" font-family="-apple-system, BlinkMacSystemFont, 'Segoe UI', 'Helvetica Neue', Arial, 'Noto Sans', sans-serif" font-size="9" font-weight="500" letter-spacing="2.5" fill="#6e7781">LANGUAGES</text><rect x="40" y="150" width="340" height="5" rx="2.5" fill="#30363d"/><g clip-path="url(#langclip)"><rect x="40.0" y="150" width="113.3" height="5" fill="#3178c6"/><rect x="153.3" y="150" width="64.8" height="5" fill="#3572A5"/><rect x="218.1" y="150" width="48.6" height="5" fill="#f1e05a"/><rect x="266.7" y="150" width="48.6" height="5" fill="#dea584"/><rect x="315.2" y="150" width="32.4" height="5" fill="#000080"/><rect x="347.6" y="150" width="32.4" height="5" fill="#89e051"/></g><circle cx="44.0" cy="182.5" r="3" fill="#3178c6"/><text x="52.0" y="186" font-family="-apple-system, BlinkMacSystemFont, 'Segoe UI', 'Helvetica Neue', Arial, 'Noto Sans', sans-serif" font-size="9" fill="#c9d1d9">TypeScript<tspan fill="#6e7781"> 7</tspan></text><circle cx="133.2" cy="182.5" r="3" fill="#3572A5"/><text x="141.2" y="186" font-family="-apple-system, BlinkMacSystemFont, 'Segoe UI', 'Helvetica Neue', Arial, 'Noto Sans', sans-serif" font-size="9" fill="#c9d1d9">Python<tspan fill="#6e7781"> 4</tspan></text><circle cx="202.0" cy="182.5" r="3" fill="#f1e05a"/><text x="210.0" y="186" font-family="-apple-system, BlinkMacSystemFont, 'Segoe UI', 'Helvetica Neue', Arial, 'Noto Sans', sans-serif" font-size="9" fill="#c9d1d9">JavaScript<tspan fill="#6e7781"> 3</tspan></text><circle cx="291.2" cy="182.5" r="3" fill="#dea584"/><text x="299.2" y="186" font-family="-apple-system, BlinkMacSystemFont, 'Segoe UI', 'Helvetica Neue', Arial, 'Noto Sans', sans-serif" font-size="9" fill="#c9d1d9">Rust<tspan fill="#6e7781"> 3</tspan></text><circle cx="349.8" cy="182.5" r="3" fill="#000080"/><text x="357.8" y="186" font-family="-apple-system, BlinkMacSystemFont, 'Segoe UI', 'Helvetica Neue', Arial, 'Noto Sans', sans-serif" font-size="9" fill="#c9d1d9">Lua<tspan fill="#6e7781"> 2</tspan></text><circle cx="403.3" cy="182.5" r="3" fill="#89e051"/><text x="411.3" y="186" font-family="-apple-system, BlinkMacSystemFont, 'Segoe UI', 'Helvetica Neue', Arial, 'Noto Sans', sans-serif" font-size="9" fill="#c9d1d9">Shell<tspan fill="#6e7781"> 2</tspan></text><text x="816" y="192" text-anchor="end" font-family="-apple-system, BlinkMacSystemFont, 'Segoe UI', 'Helvetica Neue', Arial, 'Noto Sans', sans-serif" font-size="10" font-style="italic" fill="rgba(255,255,255,0.42)">Explore me as you please — no warranty whatsoever.</text></g><rect width="840" height="210" rx="16" fill="none" stroke="rgba(255,255,255,0.08)"/></svg>