<svg xmlns="http://www.w3.org/2000/svg" width="840" height="210" viewBox="0 0 840 210"><defs>
    <linearGradient id="skybg" x1="0" y1="0" x2="0" y2="1">
      <stop offset="0" stop-color="#161f33"/>
      <stop offset="1" stop-color="#0d1117"/>
    </linearGradient>
    <linearGradient id="scrim" x1="0" y1="0" x2="1" y2="0">
      <stop offset="0" stop-color="rgba(13,17,23,0.88)"/>
      <stop offset="0.5" stop-color="rgba(13,17,23,0.5)"/>
      <stop offset="1" stop-color="rgba(13,17,23,0)"/>
    </linearGradient>
    <clipPath id="card"><rect width="840" height="210" rx="16"/></clipPath>
    <clipPath id="langclip"><rect x="40" y="150" width="340" height="5" rx="2.5"/></clipPath>
  </defs><g clip-path="url(#card)"><rect width="840" height="210" fill="url(#skybg)"/><circle cx="176.3" cy="117.7" r="1.30" fill="#fff" opacity="0.55"/><circle cx="647.5" cy="87.6" r="0.95" fill="#fff" opacity="0.54"/><circle cx="394.4" cy="110.5" r="0.95" fill="#fff" opacity="0.54"/><circle cx="576.3" cy="145.5" r="0.95" fill="#fff" opacity="0.54"/><circle cx="506.2" cy="186.1" r="0.95" fill="#fff" opacity="0.54"/><circle cx="53.4" cy="93.4" r="0.95" fill="#fff" opacity="0.54"/><circle cx="427.6" cy="100.8" r="0.95" fill="#fff" opacity="0.52"/><circle cx="406.1" cy="79.3" r="0.95" fill="#fff" opacity="0.52"/><circle cx="674.8" cy="14.9" r="0.95" fill="#fff" opacity="0.5"/><circle cx="790.9" cy="29.8" r="0.95" fill="#fff" opacity="0.49"/><circle cx="394.5" cy="129.5" r="0.95" fill="#fff" opacity="0.47"/><circle cx="749.8" cy="112.5" r="0.95" fill="#fff" opacity="0.46"/><circle cx="403.8" cy="207.3" r="0.95" fill="#fff" opacity="0.45"/><circle cx="550.9" cy="206.3" r="0.95" fill="#fff" opacity="0.44"/><circle cx="40.3" cy="79.0" r="0.95" fill="#fff" opacity="0.44"/><circle cx="153.0" cy="0.1" r="0.70" fill="#fff" opacity="0.43"/><circle cx="40.4" cy="19.2" r="0.70" fill="#fff" opacity="0.42"/><circle cx="255.8" cy="30.3" r="0.70" fill="#fff" opacity="0.42"/><circle cx="257.5" cy="88.8" r="0.70" fill="#fff" opacity="0.42"/><circle cx="622.7" cy="119.7" r="0.70" fill="#fff" opacity="0.41"/><circle cx="595.5" cy="200.8" r="0.70" fill="#fff" opacity="0.4"/><circle cx="364.2" cy="142.6" r="0.70" fill="#fff" opacity="0.4"/><circle cx="368.8" cy="2.2" r="0.70" fill="#fff" opacity="0.4"/><circle cx="417.1" cy="106.5" r="0.70" fill="#fff" opacity="0.39"/><circle cx="124.4" cy="31.2" r="0.70" fill="#fff" opacity="0.39"/><circle cx="328.1" cy="44.4" r="0.70" fill="#fff" opacity="0.39"/><circle cx="711.8" cy="1.1" r="0.70" fill="#fff" opacity="0.39"/><circle cx="701.5" cy="204.6" r="0.70" fill="#fff" opacity="0.38"/><circle cx="474.5" cy="152.8" r="0.70" fill="#fff" opacity="0.38"/><circle cx="539.7" cy="13.5" r="0.70" fill="#fff" opacity="0.38"/><circle cx="448.2" cy="98.9" r="0.70" fill="#fff" opacity="0.37"/><circle cx="396.4" cy="192.0" r="0.70" fill="#fff" opacity="0.36"/><circle cx="43.8" cy="175.7" r="0.70" fill="#fff" opacity="0.36"/><circle cx="184.2" cy="13.6" r="0.70" fill="#fff" opacity="0.36"/><circle cx="508.1" cy="48.8" r="0.70" fill="#fff" opacity="0.36"/><circle cx="560.5" cy="128.6" r="0.70" fill="#fff" opacity="0.35"/><circle cx="414.0" cy="202.2" r="0.70" fill="#fff" opacity="0.35"/><circle cx="28.1" cy="149.8" r="0.70" fill="#fff" opacity="0.35"/><circle cx="300.2" cy="134.9" r="0.70" fill="#fff" opacity="0.34"/><circle cx="803.4" cy="187.0" r="1.80" fill="#f0b27a" opacity="0.85"/><rect width="840" height="210" fill="url(#scrim)"/><text x="40" y="86" font-family="-apple-system, BlinkMacSystemFont, 'Segoe UI', 'Helvetica Neue', Arial, 'Noto Sans', sans-serif" font-size="34" font-weight="300" fill="#f0f6fc">53</text><text x="40" y="108" font-family="-apple-system, BlinkMacSystemFont, 'Segoe UI', 'Helvetica Neue', Arial, 'Noto Sans', sans-serif" font-size="10" font-weight="500" letter-spacing="2.5" fill="#7d8590">REPOS</text><text x="240" y="86" font-family="-apple-system, BlinkMacSystemFont, 'Segoe UI', 'Helvetica Neue', Arial, 'Noto Sans', sans-serif" font-size="34" font-weight="300" fill="#f0f6fc">528</text><text x="240" y="108" font-family="-apple-system, BlinkMacSystemFont, 'Segoe UI', 'Helvetica Neue', Arial, 'Noto Sans', sans-serif" font-size="10" font-weight="500" letter-spacing="2.5" fill="#7d8590">CONTRIBUTIONS</text><text x="460" y="86" font-family="-apple-system, BlinkMacSystemFont, 'Segoe UI', 'Helvetica Neue', Arial, 'Noto Sans', sans-serif" font-size="34" font-weight="300" fill="#f0f6fc">2017-03-04</text><text x="460" y="108" font-family="-apple-system, BlinkMacSystemFont, 'Segoe UI', 'Helvetica Neue', Arial, 'Noto Sans', sans-serif" font-size="10" font-weight="500" letter-spacing="2.5" fill="#7d8590">SINCE</text><text x="40" y="140" font-family="-apple-system, BlinkMacSystemFont, 'Segoe UI', 'Helvetica Neue', Arial, 'Noto Sans', sans-serif" font-size="9" font-weight="500" letter-spacing="2.5" fill="#6e7781">LANGUAGES</text><rect x="40" y="150" width="340" height="5" rx="2.5" fill="#30363d"/><g clip-path="url(#langclip)"><rect x="40.0" y="150" width="113.3" height="5" fill="#3178c6"/><rect x="153.3" y="150" width="75.6" height="5" fill="#3572A5"/><rect x="228.9" y="150" width="37.8" height="5" fill="#f1e05a"/><rect x="266.7" y="150" width="37.8" height="5" fill="#000080"/><rect x="304.4" y="150" width="37.8" height="5" fill="#89e051"/><rect x="342.2" y="150" width="37.8" height="5" fill="#e34c26"/></g><circle cx="44.0" cy="182.5" r="3" fill="#3178c6"/><text x="52.0" y="186" font-family="-apple-system, BlinkMacSystemFont, 'Segoe UI', 'Helvetica Neue', Arial, 'Noto Sans', sans-serif" font-size="9" fill="#c9d1d9">TypeScript<tspan fill="#6e7781"> 6</tspan></text><circle cx="133.2" cy="182.5" r="3" fill="#3572A5"/><text x="141.2" y="186" font-family="-apple-system, BlinkMacSystemFont, 'Segoe UI', 'Helvetica Neue', Arial, 'Noto Sans', sans-serif" font-size="9" fill="#c9d1d9">Python<tspan fill="#6e7781"> 4</tspan></text><circle cx="202.0" cy="182.5" r="3" fill="#f1e05a"/><text x="210.0" y="186" font-family="-apple-system, BlinkMacSystemFont, 'Segoe UI', 'Helvetica Neue', Arial, 'Noto Sans', sans-serif" font-size="9" fill="#c9d1d9">JavaScript<tspan fill="#6e7781"> 2</tspan></text><circle cx="291.2" cy="182.5" r="3" fill="#000080"/><text x="299.2" y="186" font-family="-apple-system, BlinkMacSystemFont, 'Segoe UI', 'Helvetica Neue', Arial, 'Noto Sans', sans-serif" font-size="9" fill="#c9d1d9">Lua<tspan fill="#6e7781"> 2</tspan></text><circle cx="344.7" cy="182.5" r="3" fill="#89e051"/><text x="352.7" y="186" font-family="-apple-system, BlinkMacSystemFont, 'Segoe UI', 'Helvetica Neue', Arial, 'Noto Sans', sans-serif" font-size="9" fill="#c9d1d9">Shell<tspan fill="#6e7781"> 2</tspan></text><circle cx="408.4" cy="182.5" r="3" fill="#e34c26"/><text x="416.4" y="186" font-family="-apple-system, BlinkMacSystemFont, 'Segoe UI', 'Helvetica Neue', Arial, 'Noto Sans', sans-serif" font-size="9" fill="#c9d1d9">HTML<tspan fill="#6e7781"> 2</tspan></text><text x="816" y="192" text-anchor="end" font-family="-apple-system, BlinkMacSystemFont, 'Segoe UI', 'Helvetica Neue', Arial, 'Noto Sans', sans-serif" font-size="10" font-style="italic" fill="rgba(255,255,255,0.42)">Explore me as you please — no warranty whatsoever.</text></g><rect width="840" height="210" rx="16" fill="none" stroke="rgba(255,255,255,0.08)"/></svg>