<svg xmlns="http://www.w3.org/2000/svg" width="840" height="210" viewBox="0 0 840 210"><defs>
    <linearGradient id="skybg" x1="0" y1="0" x2="0" y2="1">
      <stop offset="0" stop-color="#161f33"/>
      <stop offset="1" stop-color="#0d1117"/>
    </linearGradient>
    <linearGradient id="scrim" x1="0" y1="0" x2="1" y2="0">
      <stop offset="0" stop-color="rgba(13,17,23,0.88)"/>
      <stop offset="0.5" stop-color="rgba(13,17,23,0.5)"/>
      <stop offset="1" stop-color="rgba(13,17,23,0)"/>
    </linearGradient>
    <clipPath id="card"><rect width="840" height="210" rx="16"/></clipPath>
    <clipPath id="langclip"><rect x="40" y="150" width="340" height="5" rx="2.5"/></clipPath>
  </defs><g clip-path="url(#card)"><rect width="840" height="210" fill="url(#skybg)"/><circle cx="506.7" cy="20.3" r="1.70" fill="#fff" opacity="0.75"/><circle cx="824.9" cy="92.1" r="1.70" fill="#fff" opacity="0.7"/><circle cx="506.7" cy="20.3" r="1.70" fill="#fff" opacity="0.65"/><circle cx="616.0" cy="184.5" r="1.30" fill="#fff" opacity="0.63"/><circle cx="667.1" cy="28.5" r="1.30" fill="#fff" opacity="0.59"/><circle cx="595.6" cy="166.3" r="1.30" fill="#fff" opacity="0.59"/><circle cx="521.6" cy="59.1" r="1.30" fill="#fff" opacity="0.55"/><circle cx="732.8" cy="127.2" r="1.30" fill="#fff" opacity="0.55"/><circle cx="172.1" cy="112.9" r="1.30" fill="#fff" opacity="0.55"/><circle cx="138.3" cy="196.1" r="0.95" fill="#fff" opacity="0.54"/><circle cx="586.7" cy="60.7" r="0.95" fill="#fff" opacity="0.49"/><circle cx="696.1" cy="100.4" r="0.95" fill="#fff" opacity="0.45"/><circle cx="757.1" cy="201.0" r="0.95" fill="#fff" opacity="0.45"/><circle cx="595.6" cy="166.3" r="0.95" fill="#fff" opacity="0.45"/><circle cx="522.7" cy="4.9" r="0.95" fill="#fff" opacity="0.44"/><circle cx="728.1" cy="48.7" r="0.95" fill="#fff" opacity="0.44"/><circle cx="118.2" cy="203.7" r="0.95" fill="#fff" opacity="0.44"/><circle cx="667.0" cy="120.9" r="0.70" fill="#fff" opacity="0.43"/><circle cx="7.2" cy="140.4" r="0.70" fill="#fff" opacity="0.43"/><circle cx="548.9" cy="7.2" r="0.70" fill="#fff" opacity="0.42"/><circle cx="38.1" cy="200.3" r="0.70" fill="#fff" opacity="0.42"/><circle cx="30.1" cy="77.9" r="0.70" fill="#fff" opacity="0.42"/><circle cx="118.4" cy="61.9" r="0.70" fill="#fff" opacity="0.42"/><circle cx="699.9" cy="91.0" r="0.70" fill="#fff" opacity="0.41"/><circle cx="820.4" cy="63.1" r="0.70" fill="#fff" opacity="0.4"/><circle cx="752.9" cy="142.3" r="0.70" fill="#fff" opacity="0.4"/><circle cx="377.7" cy="162.2" r="0.70" fill="#fff" opacity="0.4"/><circle cx="670.5" cy="167.3" r="0.70" fill="#fff" opacity="0.39"/><circle cx="53.0" cy="152.4" r="0.70" fill="#fff" opacity="0.39"/><circle cx="26.1" cy="32.9" r="0.70" fill="#fff" opacity="0.39"/><circle cx="598.8" cy="119.2" r="0.70" fill="#fff" opacity="0.38"/><circle cx="708.3" cy="174.7" r="0.70" fill="#fff" opacity="0.38"/><circle cx="640.5" cy="190.3" r="0.70" fill="#fff" opacity="0.38"/><circle cx="339.0" cy="189.8" r="0.70" fill="#fff" opacity="0.38"/><circle cx="549.3" cy="3.1" r="0.70" fill="#fff" opacity="0.37"/><circle cx="443.5" cy="62.2" r="0.70" fill="#fff" opacity="0.37"/><circle cx="627.9" cy="163.6" r="0.70" fill="#fff" opacity="0.36"/><circle cx="248.1" cy="209.1" r="0.70" fill="#fff" opacity="0.36"/><circle cx="21.7" cy="121.4" r="0.70" fill="#fff" opacity="0.36"/><circle cx="185.7" cy="25.0" r="0.70" fill="#fff" opacity="0.34"/><rect width="840" height="210" fill="url(#scrim)"/><text x="40" y="86" font-family="-apple-system, BlinkMacSystemFont, 'Segoe UI', 'Helvetica Neue', Arial, 'Noto Sans', sans-serif" font-size="34" font-weight="300" fill="#f0f6fc">58</text><text x="40" y="108" font-family="-apple-system, BlinkMacSystemFont, 'Segoe UI', 'Helvetica Neue', Arial, 'Noto Sans', sans-serif" font-size="10" font-weight="500" letter-spacing="2.5" fill="#7d8590">REPOS</text><text x="240" y="86" font-family="-apple-system, BlinkMacSystemFont, 'Segoe UI', 'Helvetica Neue', Arial, 'Noto Sans', sans-serif" font-size="34" font-weight="300" fill="#f0f6fc">868</text><text x="240" y="108" font-family="-apple-system, BlinkMacSystemFont, 'Segoe UI', 'Helvetica Neue', Arial, 'Noto Sans', sans-serif" font-size="10" font-weight="500" letter-spacing="2.5" fill="#7d8590">CONTRIBUTIONS</text><text x="460" y="86" font-family="-apple-system, BlinkMacSystemFont, 'Segoe UI', 'Helvetica Neue', Arial, 'Noto Sans', sans-serif" font-size="34" font-weight="300" fill="#f0f6fc">2017-03-04</text><text x="460" y="108" font-family="-apple-system, BlinkMacSystemFont, 'Segoe UI', 'Helvetica Neue', Arial, 'Noto Sans', sans-serif" font-size="10" font-weight="500" letter-spacing="2.5" fill="#7d8590">SINCE</text><text x="40" y="140" font-family="-apple-system, BlinkMacSystemFont, 'Segoe UI', 'Helvetica Neue', Arial, 'Noto Sans', sans-serif" font-size="9" font-weight="500" letter-spacing="2.5" fill="#6e7781">LANGUAGES</text><rect x="40" y="150" width="340" height="5" rx="2.5" fill="#30363d"/><g clip-path="url(#langclip)"><rect x="40.0" y="150" width="113.3" height="5" fill="#3178c6"/><rect x="153.3" y="150" width="64.8" height="5" fill="#3572A5"/><rect x="218.1" y="150" width="48.6" height="5" fill="#f1e05a"/><rect x="266.7" y="150" width="48.6" height="5" fill="#dea584"/><rect x="315.2" y="150" width="32.4" height="5" fill="#000080"/><rect x="347.6" y="150" width="32.4" height="5" fill="#89e051"/></g><circle cx="44.0" cy="182.5" r="3" fill="#3178c6"/><text x="52.0" y="186" font-family="-apple-system, BlinkMacSystemFont, 'Segoe UI', 'Helvetica Neue', Arial, 'Noto Sans', sans-serif" font-size="9" fill="#c9d1d9">TypeScript<tspan fill="#6e7781"> 7</tspan></text><circle cx="133.2" cy="182.5" r="3" fill="#3572A5"/><text x="141.2" y="186" font-family="-apple-system, BlinkMacSystemFont, 'Segoe UI', 'Helvetica Neue', Arial, 'Noto Sans', sans-serif" font-size="9" fill="#c9d1d9">Python<tspan fill="#6e7781"> 4</tspan></text><circle cx="202.0" cy="182.5" r="3" fill="#f1e05a"/><text x="210.0" y="186" font-family="-apple-system, BlinkMacSystemFont, 'Segoe UI', 'Helvetica Neue', Arial, 'Noto Sans', sans-serif" font-size="9" fill="#c9d1d9">JavaScript<tspan fill="#6e7781"> 3</tspan></text><circle cx="291.2" cy="182.5" r="3" fill="#dea584"/><text x="299.2" y="186" font-family="-apple-system, BlinkMacSystemFont, 'Segoe UI', 'Helvetica Neue', Arial, 'Noto Sans', sans-serif" font-size="9" fill="#c9d1d9">Rust<tspan fill="#6e7781"> 3</tspan></text><circle cx="349.8" cy="182.5" r="3" fill="#000080"/><text x="357.8" y="186" font-family="-apple-system, BlinkMacSystemFont, 'Segoe UI', 'Helvetica Neue', Arial, 'Noto Sans', sans-serif" font-size="9" fill="#c9d1d9">Lua<tspan fill="#6e7781"> 2</tspan></text><circle cx="403.3" cy="182.5" r="3" fill="#89e051"/><text x="411.3" y="186" font-family="-apple-system, BlinkMacSystemFont, 'Segoe UI', 'Helvetica Neue', Arial, 'Noto Sans', sans-serif" font-size="9" fill="#c9d1d9">Shell<tspan fill="#6e7781"> 2</tspan></text><text x="816" y="192" text-anchor="end" font-family="-apple-system, BlinkMacSystemFont, 'Segoe UI', 'Helvetica Neue', Arial, 'Noto Sans', sans-serif" font-size="10" font-style="italic" fill="rgba(255,255,255,0.42)">Explore me as you please — no warranty whatsoever.</text></g><rect width="840" height="210" rx="16" fill="none" stroke="rgba(255,255,255,0.08)"/></svg>