<svg xmlns="http://www.w3.org/2000/svg" width="840" height="210" viewBox="0 0 840 210"><defs>
    <linearGradient id="skybg" x1="0" y1="0" x2="0" y2="1">
      <stop offset="0" stop-color="#161f33"/>
      <stop offset="1" stop-color="#0d1117"/>
    </linearGradient>
    <linearGradient id="scrim" x1="0" y1="0" x2="1" y2="0">
      <stop offset="0" stop-color="rgba(13,17,23,0.88)"/>
      <stop offset="0.5" stop-color="rgba(13,17,23,0.5)"/>
      <stop offset="1" stop-color="rgba(13,17,23,0)"/>
    </linearGradient>
    <clipPath id="card"><rect width="840" height="210" rx="16"/></clipPath>
    <clipPath id="langclip"><rect x="40" y="150" width="340" height="5" rx="2.5"/></clipPath>
  </defs><g clip-path="url(#card)"><rect width="840" height="210" fill="url(#skybg)"/><circle cx="503.4" cy="127.6" r="1.70" fill="#fff" opacity="0.75"/><circle cx="734.0" cy="123.1" r="1.70" fill="#fff" opacity="0.66"/><circle cx="503.4" cy="127.6" r="1.70" fill="#fff" opacity="0.65"/><circle cx="772.0" cy="200.6" r="1.30" fill="#fff" opacity="0.59"/><circle cx="622.9" cy="161.2" r="1.30" fill="#fff" opacity="0.59"/><circle cx="473.6" cy="29.3" r="1.30" fill="#fff" opacity="0.57"/><circle cx="496.2" cy="166.9" r="1.30" fill="#fff" opacity="0.55"/><circle cx="174.6" cy="113.9" r="1.30" fill="#fff" opacity="0.55"/><circle cx="551.5" cy="7.1" r="0.95" fill="#fff" opacity="0.54"/><circle cx="88.9" cy="175.5" r="0.95" fill="#fff" opacity="0.54"/><circle cx="17.3" cy="9.0" r="0.95" fill="#fff" opacity="0.49"/><circle cx="548.1" cy="180.9" r="0.95" fill="#fff" opacity="0.49"/><circle cx="603.5" cy="123.0" r="0.95" fill="#fff" opacity="0.47"/><circle cx="632.6" cy="56.0" r="0.95" fill="#fff" opacity="0.46"/><circle cx="433.9" cy="19.0" r="0.95" fill="#fff" opacity="0.45"/><circle cx="699.7" cy="55.1" r="0.95" fill="#fff" opacity="0.45"/><circle cx="563.4" cy="56.4" r="0.95" fill="#fff" opacity="0.45"/><circle cx="495.9" cy="43.6" r="0.95" fill="#fff" opacity="0.44"/><circle cx="523.2" cy="116.4" r="0.95" fill="#fff" opacity="0.44"/><circle cx="667.0" cy="187.0" r="0.95" fill="#fff" opacity="0.44"/><circle cx="66.0" cy="175.5" r="0.95" fill="#fff" opacity="0.44"/><circle cx="4.3" cy="82.0" r="0.70" fill="#fff" opacity="0.43"/><circle cx="791.4" cy="157.1" r="0.70" fill="#fff" opacity="0.42"/><circle cx="541.2" cy="123.3" r="0.70" fill="#fff" opacity="0.42"/><circle cx="75.6" cy="35.1" r="0.70" fill="#fff" opacity="0.42"/><circle cx="169.0" cy="51.9" r="0.70" fill="#fff" opacity="0.42"/><circle cx="571.4" cy="2.9" r="0.70" fill="#fff" opacity="0.41"/><circle cx="306.4" cy="7.0" r="0.70" fill="#fff" opacity="0.4"/><circle cx="784.6" cy="87.5" r="0.70" fill="#fff" opacity="0.4"/><circle cx="742.7" cy="115.5" r="0.70" fill="#fff" opacity="0.4"/><circle cx="742.1" cy="205.5" r="0.70" fill="#fff" opacity="0.4"/><circle cx="718.7" cy="110.2" r="0.70" fill="#fff" opacity="0.39"/><circle cx="39.6" cy="107.8" r="0.70" fill="#fff" opacity="0.39"/><circle cx="836.5" cy="50.5" r="0.70" fill="#fff" opacity="0.38"/><circle cx="699.6" cy="57.2" r="0.70" fill="#fff" opacity="0.38"/><circle cx="749.6" cy="105.3" r="0.70" fill="#fff" opacity="0.38"/><circle cx="829.1" cy="52.0" r="0.70" fill="#fff" opacity="0.37"/><circle cx="700.7" cy="52.1" r="0.70" fill="#fff" opacity="0.37"/><circle cx="799.6" cy="161.3" r="0.70" fill="#fff" opacity="0.37"/><circle cx="818.6" cy="171.3" r="0.70" fill="#fff" opacity="0.37"/><rect width="840" height="210" fill="url(#scrim)"/><text x="40" y="86" font-family="-apple-system, BlinkMacSystemFont, 'Segoe UI', 'Helvetica Neue', Arial, 'Noto Sans', sans-serif" font-size="34" font-weight="300" fill="#f0f6fc">55</text><text x="40" y="108" font-family="-apple-system, BlinkMacSystemFont, 'Segoe UI', 'Helvetica Neue', Arial, 'Noto Sans', sans-serif" font-size="10" font-weight="500" letter-spacing="2.5" fill="#7d8590">REPOS</text><text x="240" y="86" font-family="-apple-system, BlinkMacSystemFont, 'Segoe UI', 'Helvetica Neue', Arial, 'Noto Sans', sans-serif" font-size="34" font-weight="300" fill="#f0f6fc">737</text><text x="240" y="108" font-family="-apple-system, BlinkMacSystemFont, 'Segoe UI', 'Helvetica Neue', Arial, 'Noto Sans', sans-serif" font-size="10" font-weight="500" letter-spacing="2.5" fill="#7d8590">CONTRIBUTIONS</text><text x="460" y="86" font-family="-apple-system, BlinkMacSystemFont, 'Segoe UI', 'Helvetica Neue', Arial, 'Noto Sans', sans-serif" font-size="34" font-weight="300" fill="#f0f6fc">2017-03-04</text><text x="460" y="108" font-family="-apple-system, BlinkMacSystemFont, 'Segoe UI', 'Helvetica Neue', Arial, 'Noto Sans', sans-serif" font-size="10" font-weight="500" letter-spacing="2.5" fill="#7d8590">SINCE</text><text x="40" y="140" font-family="-apple-system, BlinkMacSystemFont, 'Segoe UI', 'Helvetica Neue', Arial, 'Noto Sans', sans-serif" font-size="9" font-weight="500" letter-spacing="2.5" fill="#6e7781">LANGUAGES</text><rect x="40" y="150" width="340" height="5" rx="2.5" fill="#30363d"/><g clip-path="url(#langclip)"><rect x="40.0" y="150" width="107.4" height="5" fill="#3178c6"/><rect x="147.4" y="150" width="71.6" height="5" fill="#3572A5"/><rect x="218.9" y="150" width="53.7" height="5" fill="#f1e05a"/><rect x="272.6" y="150" width="35.8" height="5" fill="#dea584"/><rect x="308.4" y="150" width="35.8" height="5" fill="#000080"/><rect x="344.2" y="150" width="35.8" height="5" fill="#89e051"/></g><circle cx="44.0" cy="182.5" r="3" fill="#3178c6"/><text x="52.0" y="186" font-family="-apple-system, BlinkMacSystemFont, 'Segoe UI', 'Helvetica Neue', Arial, 'Noto Sans', sans-serif" font-size="9" fill="#c9d1d9">TypeScript<tspan fill="#6e7781"> 6</tspan></text><circle cx="133.2" cy="182.5" r="3" fill="#3572A5"/><text x="141.2" y="186" font-family="-apple-system, BlinkMacSystemFont, 'Segoe UI', 'Helvetica Neue', Arial, 'Noto Sans', sans-serif" font-size="9" fill="#c9d1d9">Python<tspan fill="#6e7781"> 4</tspan></text><circle cx="202.0" cy="182.5" r="3" fill="#f1e05a"/><text x="210.0" y="186" font-family="-apple-system, BlinkMacSystemFont, 'Segoe UI', 'Helvetica Neue', Arial, 'Noto Sans', sans-serif" font-size="9" fill="#c9d1d9">JavaScript<tspan fill="#6e7781"> 3</tspan></text><circle cx="291.2" cy="182.5" r="3" fill="#dea584"/><text x="299.2" y="186" font-family="-apple-system, BlinkMacSystemFont, 'Segoe UI', 'Helvetica Neue', Arial, 'Noto Sans', sans-serif" font-size="9" fill="#c9d1d9">Rust<tspan fill="#6e7781"> 2</tspan></text><circle cx="349.8" cy="182.5" r="3" fill="#000080"/><text x="357.8" y="186" font-family="-apple-system, BlinkMacSystemFont, 'Segoe UI', 'Helvetica Neue', Arial, 'Noto Sans', sans-serif" font-size="9" fill="#c9d1d9">Lua<tspan fill="#6e7781"> 2</tspan></text><circle cx="403.3" cy="182.5" r="3" fill="#89e051"/><text x="411.3" y="186" font-family="-apple-system, BlinkMacSystemFont, 'Segoe UI', 'Helvetica Neue', Arial, 'Noto Sans', sans-serif" font-size="9" fill="#c9d1d9">Shell<tspan fill="#6e7781"> 2</tspan></text><text x="816" y="192" text-anchor="end" font-family="-apple-system, BlinkMacSystemFont, 'Segoe UI', 'Helvetica Neue', Arial, 'Noto Sans', sans-serif" font-size="10" font-style="italic" fill="rgba(255,255,255,0.42)">Explore me as you please — no warranty whatsoever.</text></g><rect width="840" height="210" rx="16" fill="none" stroke="rgba(255,255,255,0.08)"/></svg>